<?xml version="1.0" standalone="no"?>
<!DOCTYPE svg PUBLIC "-//W3C//DTD SVG 20010904//EN"
 "http://www.w3.org/TR/2001/REC-SVG-20010904/DTD/svg10.dtd">
<svg version="1.0" xmlns="http://www.w3.org/2000/svg"
 width="968.000000pt" height="968.000000pt" viewBox="0 0 968.000000 968.000000"
 preserveAspectRatio="xMidYMid meet">
<metadata>
Created by potrace 1.14, written by Peter Selinger 2001-2017
</metadata>
<g transform="translate(0.000000,968.000000) scale(0.100000,-0.100000)"
fill="#000000" stroke="none">
<path d="M4675 9658 c-27 -4 -68 -10 -90 -13 -39 -5 -76 -14 -225 -53 -147
-40 -420 -155 -544 -230 -37 -23 -73 -42 -78 -42 -24 0 -255 -158 -343 -234
-38 -34 -86 -74 -105 -91 -47 -40 -244 -237 -361 -361 -143 -151 -409 -489
-506 -643 -16 -24 -33 -48 -38 -55 -29 -30 -256 -393 -315 -501 -15 -27 -54
-97 -86 -155 -33 -58 -70 -130 -84 -160 -14 -30 -53 -104 -88 -165 -34 -60
-103 -193 -153 -295 -50 -102 -111 -224 -135 -272 -25 -49 -42 -88 -40 -88 3
0 -15 -48 -40 -107 -46 -109 -88 -221 -105 -280 -5 -18 -16 -45 -24 -60 -8
-15 -15 -35 -15 -43 0 -9 -5 -21 -12 -28 -7 -7 -9 -12 -5 -12 4 0 3 -9 -3 -20
-10 -18 -76 -222 -85 -261 -6 -26 -27 -103 -33 -119 -3 -8 -6 -19 -7 -25 -1
-5 -10 -31 -18 -57 -9 -26 -18 -57 -21 -70 -5 -25 -47 -205 -72 -303 -15 -62
-20 -88 -29 -140 -5 -30 -11 -64 -19 -107 -3 -13 -7 -47 -10 -77 -4 -30 -9
-64 -11 -75 -3 -12 -7 -52 -10 -91 -2 -38 -5 -70 -5 -70 -13 0 -17 -528 -5
-725 3 -63 8 -146 10 -185 2 -38 6 -88 9 -110 3 -22 8 -62 11 -90 4 -27 9 -59
12 -70 3 -11 7 -29 9 -40 1 -11 8 -42 14 -70 6 -27 14 -61 17 -75 6 -32 9 -41
15 -60 3 -8 27 -82 53 -165 26 -82 53 -163 60 -180 7 -16 32 -79 55 -140 58
-149 113 -279 120 -285 3 -3 16 -27 28 -55 13 -27 27 -57 32 -65 5 -8 22 -40
37 -70 15 -30 31 -57 34 -60 4 -3 14 -21 23 -40 35 -76 125 -223 146 -240 4
-3 26 -33 49 -68 116 -172 423 -491 627 -652 10 -8 41 -33 68 -55 27 -22 72
-56 101 -75 252 -168 302 -200 310 -200 4 0 21 -10 38 -23 44 -30 60 -40 147
-85 168 -88 302 -152 316 -152 3 0 20 -7 37 -15 122 -56 345 -138 452 -165 39
-10 104 -28 145 -39 41 -12 91 -24 110 -27 19 -3 55 -12 80 -21 25 -8 68 -16
95 -18 28 -3 70 -7 95 -10 111 -14 654 -22 740 -11 19 3 86 7 148 10 62 3 116
7 121 11 5 3 36 8 68 11 87 8 254 41 378 75 61 17 121 32 135 35 64 13 255 66
265 74 5 4 15 9 20 10 19 4 40 13 115 45 41 17 104 44 140 60 76 32 142 64
264 129 123 66 128 69 151 87 11 9 45 30 76 47 30 17 91 55 133 84 43 29 102
69 130 88 133 89 306 241 515 451 125 125 211 227 295 349 33 47 62 87 66 90
12 10 77 125 158 280 31 58 59 107 64 108 4 2 8 8 8 14 0 6 13 36 29 68 29 56
151 345 151 356 0 3 7 20 15 37 49 107 163 493 190 647 17 99 23 150 29 265 3
50 8 144 12 210 9 153 9 589 0 635 -4 19 -9 69 -11 110 -3 41 -7 86 -10 100
-3 14 -8 50 -11 80 -2 30 -7 69 -10 85 -18 105 -36 201 -38 210 -2 6 -6 21 -9
35 -6 20 -35 145 -73 305 -6 24 -7 28 -23 85 -8 25 -14 50 -16 55 -1 6 -7 23
-13 38 -7 16 -12 32 -12 36 0 7 -22 82 -61 211 -6 19 -28 82 -49 140 -22 58
-60 164 -85 235 -26 72 -57 153 -70 180 -12 28 -30 71 -38 95 -23 67 -295 618
-321 650 -13 15 -36 58 -84 155 -58 117 -104 203 -151 283 -17 29 -31 55 -31
57 0 2 -32 57 -72 122 -39 65 -76 127 -82 138 -13 23 -128 198 -136 205 -3 3
-11 17 -19 33 -8 15 -18 27 -23 27 -4 0 -8 5 -8 11 0 5 -26 45 -58 87 -32 42
-83 113 -114 157 -31 44 -69 94 -83 110 -15 17 -39 45 -53 64 -104 134 -130
163 -360 397 -273 279 -454 424 -677 544 -38 21 -104 56 -145 78 -41 22 -122
59 -180 82 -58 23 -116 46 -130 53 -14 6 -27 11 -30 12 -3 1 -12 5 -20 8 -28
12 -291 78 -333 83 -23 3 -53 8 -67 11 -42 9 -292 10 -345 1z"/>
</g>
</svg>
